<svg width="32" height="32" viewBox="0 0 40 40" xmlns="http://www.w3.org/2000/svg">
  <rect width="40" height="40" rx="10" fill="#FFFFFF" />
  <g transform="translate(4 4)" fill="#111111">
    <path d="M15.5209 0.00715969C14.5685 0.0356568 13.6153 0.149511 12.6722 0.350086C8.89933 1.15236 5.54254 3.29119 3.22151 6.37145C0.900887 9.45187 -0.230009 13.2691 0.0389436 17.1165C0.308363 20.9635 1.95956 24.5857 4.68697 27.313C7.41413 30.0403 11.0361 31.6918 14.8835 31.961C18.7309 32.2301 22.5484 31.0995 25.6286 28.7785C28.7091 26.4575 30.8477 23.1003 31.65 19.3278C32.4524 15.5551 31.8645 11.6183 29.9954 8.2448C29.6706 7.65873 29.1263 7.22573 28.4823 7.04093C27.8383 6.8562 27.1472 6.93487 26.5612 7.2596C25.9751 7.58433 25.5421 8.1286 25.3573 8.77267C25.1726 9.41667 25.2512 10.1077 25.576 10.6938C26.8555 13.0031 27.2575 15.6947 26.7084 18.2768C26.1591 20.8591 24.696 23.1545 22.5875 24.7431C20.4795 26.3315 17.8697 27.1049 15.2363 26.9207C12.6029 26.7365 10.1259 25.6073 8.25933 23.7406C6.39251 21.874 5.26371 19.3975 5.07925 16.7637C4.89514 14.1301 5.66845 11.5202 7.25687 9.41173C8.84573 7.30313 11.1407 5.84084 13.7232 5.29168C16.3053 4.74254 18.9972 5.14456 21.3063 6.42408C21.8923 6.7488 22.5833 6.82747 23.2274 6.64272C23.8714 6.45796 24.4157 6.02493 24.7405 5.43889C25.0652 4.85283 25.1439 4.16178 24.9591 3.51775C24.7743 2.87371 24.3413 2.32945 23.7553 2.00469C21.2251 0.602634 18.3778 -0.0783314 15.5209 0.00715969Z"/>
    <path d="M16.0004 22.1049C19.3721 22.1049 22.1057 19.3715 22.1057 15.9997C22.1057 12.6279 19.3721 9.89447 16.0004 9.89447C12.6286 9.89447 9.89514 12.6279 9.89514 15.9997C9.89514 19.3715 12.6286 22.1049 16.0004 22.1049Z"/>
  </g>
</svg>
