<svg
  width="195"
  height="48"
  viewBox="0 0 195 48"
  fill="#F5F7FB"
  xmlns="http://www.w3.org/2000/svg"
>
  <path d="M192.23 0C191.494 0 190.788 0.291757 190.268 0.811089C189.747 1.33042 189.455 2.03479 189.455 2.76923V32.3077C189.455 33.0421 189.747 33.7465 190.268 34.2658C190.788 34.7852 191.494 35.0769 192.23 35.0769C192.966 35.0769 193.672 34.7852 194.192 34.2658C194.713 33.7465 195.005 33.0421 195.005 32.3077V2.76923C195.005 2.03479 194.713 1.33042 194.192 0.811089C193.672 0.291757 192.966 0 192.23 0Z" />
  <path d="M157.953 13.1115C157.268 13.3776 156.716 13.9047 156.42 14.5769C156.124 15.249 156.107 16.0111 156.373 16.6956L162.843 33.311C163.045 33.8309 163.4 34.2775 163.861 34.5924C164.323 34.9073 164.868 35.0758 165.427 35.0758C165.985 35.0758 166.531 34.9073 166.992 34.5924C167.453 34.2775 167.808 33.8309 168.01 33.311L171.896 23.332L175.781 33.311C175.984 33.8309 176.339 34.2775 176.8 34.5924C177.261 34.9073 177.806 35.0758 178.365 35.0758C178.924 35.0758 179.469 34.9073 179.93 34.5924C180.391 34.2775 180.746 33.8309 180.949 33.311L187.418 16.6956C187.684 16.0111 187.668 15.249 187.371 14.5769C187.075 13.9047 186.524 13.3776 185.839 13.1115C185.153 12.8455 184.39 12.8622 183.717 13.158C183.044 13.4539 182.517 14.0046 182.25 14.689L178.365 24.668L174.48 14.689C174.277 14.1691 173.922 13.7225 173.461 13.4076C173 13.0927 172.454 12.9242 171.896 12.9242C171.337 12.9242 170.792 13.0927 170.331 13.4076C169.87 13.7225 169.515 14.1691 169.312 14.689L165.427 24.668L161.541 14.689C161.275 14.0046 160.747 13.4539 160.074 13.158C159.401 12.8622 158.638 12.8455 157.953 13.1115Z" />
  <path d="M136.231 0.00809234C135.187 0.0393297 134.142 0.164132 133.109 0.383994C128.973 1.26341 125.293 3.60791 122.749 6.98435C120.205 10.3609 118.966 14.5453 119.26 18.7626C119.556 22.9795 121.366 26.9501 124.355 29.9396C127.345 32.9292 131.315 34.7394 135.533 35.0345C139.75 35.3296 143.935 34.0902 147.311 31.546C150.688 29.0019 153.032 25.3218 153.911 21.1866C154.791 17.0511 154.147 12.7357 152.098 9.03784C151.742 8.39544 151.145 7.92077 150.439 7.71824C149.733 7.51572 148.976 7.60193 148.333 7.95791C147.691 8.3139 147.216 8.9105 147.014 9.61646C146.811 10.3224 146.897 11.0799 147.253 11.7223C148.656 14.2536 149.097 17.2042 148.495 20.0345C147.893 22.8651 146.289 25.3812 143.977 27.1226C141.667 28.8638 138.806 29.7115 135.919 29.5096C133.033 29.3076 130.317 28.0698 128.271 26.0237C126.225 23.9776 124.988 21.2629 124.785 18.3759C124.584 15.489 125.431 12.6282 127.172 10.317C128.914 8.00562 131.43 6.40273 134.261 5.80076C137.091 5.19882 140.042 5.63949 142.573 7.04205C143.215 7.39803 143.973 7.48424 144.679 7.28171C145.385 7.07919 145.981 6.60452 146.337 5.96212C146.693 5.31972 146.78 4.56221 146.577 3.85625C146.375 3.15028 145.9 2.55368 145.257 2.1977C142.484 0.660826 139.363 -0.0856197 136.231 0.00809234Z" />
  <path d="M136.757 24.2307C140.453 24.2307 143.449 21.2345 143.449 17.5384C143.449 13.8424 140.453 10.8461 136.757 10.8461C133.061 10.8461 130.064 13.8424 130.064 17.5384C130.064 21.2345 133.061 24.2307 136.757 24.2307Z" />
  <path d="M100.772 12.92C100.036 12.92 99.3315 13.2124 98.8118 13.7328C98.292 14.2532 98 14.959 98 15.695C98 16.431 98.292 17.1367 98.8118 17.6572C99.3315 18.1776 100.036 18.47 100.772 18.47H114.628C115.363 18.47 116.069 18.1776 116.588 17.6572C117.108 17.1367 117.4 16.431 117.4 15.695C117.4 14.959 117.108 14.2532 116.588 13.7328C116.069 13.2124 115.363 12.92 114.628 12.92H100.772Z" />
  <path d="M107.666 0C106.931 0 106.225 0.291757 105.705 0.811089C105.185 1.33042 104.893 2.03479 104.893 2.76923V32.3077C104.893 33.0421 105.185 33.7465 105.705 34.2658C106.225 34.7852 106.931 35.0769 107.666 35.0769C108.401 35.0769 109.106 34.7852 109.626 34.2658C110.146 33.7465 110.438 33.0421 110.438 32.3077V2.76923C110.438 2.03479 110.146 1.33042 109.626 0.811089C109.106 0.291757 108.401 0 107.666 0Z" />
  <path d="M87.0749 12.92C84.1387 12.92 81.32 14.0879 79.2437 16.1643C77.1672 18.2409 76 21.0604 76 23.9969C76 26.9335 77.1672 29.7529 79.2437 31.8296C81.32 33.906 84.1387 35.0738 87.0749 35.0738C90.0113 35.0738 92.83 33.906 94.9062 31.8296C96.9828 29.7529 98.15 26.9335 98.15 23.9969C98.15 21.0604 96.9828 18.2409 94.9062 16.1643C92.83 14.0879 90.0113 12.92 87.0749 12.92ZM87.0749 18.4585C88.5447 18.4585 89.9515 19.0414 90.991 20.0811C92.0303 21.1203 92.6125 22.5268 92.6125 23.9969C92.6125 25.467 92.0303 26.8735 90.991 27.9128C89.9515 28.9524 88.5447 29.5354 87.0749 29.5354C85.6052 29.5354 84.1985 28.9524 83.1589 27.9128C82.1197 26.8735 81.5375 25.467 81.5375 23.9969C81.5375 22.5268 82.1197 21.1203 83.1589 20.0811C84.1985 19.0414 85.6052 18.4585 87.0749 18.4585Z" />
  <path d="M78.6328 12.9231C77.8968 12.9231 77.191 13.2149 76.6705 13.7342C76.1501 14.2535 75.8578 14.9579 75.8578 15.6923V45.2308C75.8578 45.9652 76.1501 46.6696 76.6705 47.1889C77.191 47.7083 77.8968 48 78.6328 48C79.3688 48 80.0746 47.7083 80.5951 47.1889C81.1154 46.6696 81.4078 45.9652 81.4078 45.2308V15.6923C81.4078 14.9579 81.1154 14.2535 80.5951 13.7342C80.0746 13.2149 79.3688 12.9231 78.6328 12.9231Z" />
  <path d="M63.275 29.55C64.011 29.55 64.7168 29.8424 65.2372 30.3628C65.7576 30.8832 66.05 31.589 66.05 32.325V45.225C66.05 45.961 65.7576 46.6668 65.2372 47.1872C64.7168 47.7076 64.011 48 63.275 48C62.539 48 61.8332 47.7076 61.3128 47.1872C60.7924 46.6668 60.5 45.961 60.5 45.225V32.325C60.5 31.589 60.7924 30.8832 61.3128 30.3628C61.8332 29.8424 62.539 29.55 63.275 29.55Z" />
  <path d="M56.9499 13.1079C56.6131 12.9773 56.254 12.9148 55.8932 12.9241C55.5323 12.9334 55.1769 13.0142 54.8471 13.162C54.1812 13.4603 53.6602 14.0131 53.3987 14.6986C53.1372 15.3841 53.1566 16.1462 53.4527 16.8173L60.7799 33.4327C60.996 33.922 61.3481 34.3376 61.7937 34.6294C62.2394 34.9211 62.7593 35.0764 63.2907 35.0764C63.8221 35.0764 64.342 34.9211 64.7876 34.6294C65.2333 34.3376 65.5854 33.922 65.8014 33.4327L73.1287 16.8173C73.4248 16.1462 73.4442 15.3841 73.1827 14.6986C72.9212 14.0131 72.4002 13.4603 71.7343 13.162C71.0684 12.8636 70.3122 12.8441 69.6321 13.1076C68.9518 13.3712 68.4033 13.8962 68.1073 14.5673L63.2907 25.4892L58.4741 14.5673C58.1781 13.8964 57.6298 13.3715 56.9499 13.1079Z" />
  <path d="M33.73 23.995L33.7359 23.6326L33.7537 23.2707L33.7833 22.9095L33.8247 22.5494L33.8779 22.1909L33.9428 21.8344L34.0193 21.4801L34.1074 21.1286L34.2069 20.7801L34.3177 20.4351L34.4398 20.0938L34.573 19.7568L34.7172 19.4243L34.8721 19.0967L35.0377 18.7743L35.2138 18.4575L35.4001 18.1466L35.5965 17.8421L35.8027 17.5441L36.0186 17.253L36.2439 16.9691L36.4784 16.6927L36.7218 16.4242L36.9738 16.1638L37.2342 15.9118L37.5027 15.6684L37.7791 15.4339L38.063 15.2086L38.3541 14.9927L38.6521 14.7865L38.9566 14.5901L39.2675 14.4038L39.5843 14.2277L39.9067 14.0621L40.2343 13.9072L40.5668 13.763L40.9038 13.6298L41.2451 13.5077L41.5901 13.3969L41.9386 13.2974L42.2901 13.2093L42.6444 13.1328L43.0009 13.0679L43.3594 13.0147L43.7195 12.9733L44.0807 12.9437L44.4426 12.9259L44.805 12.92L45.1674 12.9259L45.5293 12.9437L45.8905 12.9733L46.2506 13.0147L46.6091 13.0679L46.9656 13.1328L47.3199 13.2093L47.6714 13.2974L48.0199 13.3969L48.3649 13.5077L48.7062 13.6298L49.0432 13.763L49.3757 13.9072L49.7033 14.0621L50.0257 14.2277L50.3425 14.4038L47.5675 19.2102L47.4095 19.1224L47.2486 19.0398L47.0852 18.9625L46.9193 18.8906L46.7512 18.8241L46.581 18.7632L46.4088 18.7079L46.235 18.6583L46.0596 18.6143L45.8829 18.5762L45.705 18.5438L45.5262 18.5173L45.3465 18.4966L45.1664 18.4818L44.9858 18.473L44.805 18.47L44.6242 18.473L44.4436 18.4818L44.2635 18.4966L44.0838 18.5173L43.905 18.5438L43.7271 18.5762L43.5504 18.6143L43.375 18.6583L43.2012 18.7079L43.029 18.7632L42.8588 18.8241L42.6907 18.8906L42.5248 18.9625L42.3614 19.0398L42.2005 19.1224L42.0425 19.2102L41.8874 19.3032L41.7355 19.4011L41.5868 19.504L41.4416 19.6117L41.3 19.7241L41.1621 19.8411L41.0282 19.9625L40.8982 20.0882L40.7725 20.2182L40.6511 20.3521L40.5341 20.49L40.4217 20.6316L40.314 20.7768L40.2111 20.9255L40.1132 21.0774L40.0202 21.2325L39.9324 21.3905L39.8498 21.5514L39.7725 21.7148L39.7006 21.8807L39.6341 22.0488L39.5732 22.219L39.5179 22.3912L39.4683 22.565L39.4243 22.7404L39.3862 22.9171L39.3538 23.095L39.3273 23.2738L39.3066 23.4535L39.2918 23.6336L39.283 23.8142L39.28 23.995H33.73Z" />
  <path d="M48.93 19.58C50.4654 19.58 51.71 18.3354 51.71 16.8C51.71 15.2647 50.4654 14.02 48.93 14.02C47.3947 14.02 46.15 15.2647 46.15 16.8C46.15 18.3354 47.3947 19.58 48.93 19.58Z" />
  <path d="M36.505 12.92C37.241 12.92 37.9468 13.2123 38.4672 13.7328C38.9876 14.2532 39.28 14.959 39.28 15.695V32.2988C39.28 32.6632 39.2082 33.0241 39.0687 33.3607C38.9293 33.6974 38.7249 34.0033 38.4672 34.261C38.2095 34.5187 37.9036 34.7231 37.5669 34.8625C37.2302 35.002 36.8694 35.0738 36.505 35.0738C36.1406 35.0738 35.7797 35.002 35.443 34.8625C35.1064 34.7231 34.8004 34.5187 34.5428 34.261C34.2851 34.0033 34.0807 33.6974 33.9412 33.3607C33.8018 33.0241 33.73 32.6632 33.73 32.2988V15.695C33.73 14.959 34.0223 14.2532 34.5428 13.7328C35.0632 13.2123 35.769 12.92 36.505 12.92Z" />
  <path d="M16.6017 0.0261382C14.8358 0.122253 13.085 0.485053 11.4095 1.11057C8.05866 2.36163 5.16905 4.60571 3.12988 7.54146C1.0907 10.4772 -0.00183105 13.9654 -0.00183105 17.5385C-0.00183105 21.1115 1.09072 24.6006 3.12988 27.5364C5.16905 30.472 8.05866 32.7153 11.4095 33.9663C14.7604 35.2174 18.4142 35.4169 21.8813 34.537C25.3485 33.657 28.4652 31.7397 30.8117 29.0427C31.0505 28.7682 31.2329 28.4493 31.3483 28.1044C31.4638 27.7595 31.5101 27.3953 31.4846 27.0325C31.4592 26.6697 31.3624 26.3155 31.1998 25.99C31.0373 25.6646 30.8122 25.3743 30.5373 25.1358C30.2625 24.8973 29.9433 24.7151 29.598 24.5998C29.2526 24.4845 28.888 24.4382 28.5247 24.4637C28.1615 24.4891 27.8069 24.5858 27.4811 24.7481C27.1553 24.9105 26.8646 25.1353 26.6258 25.4099C25.02 27.2555 22.8886 28.5667 20.5158 29.1689C18.1431 29.7711 15.644 29.6347 13.3508 28.7785C11.0577 27.9224 9.08126 26.3876 7.68575 24.3786C6.29024 22.3695 5.54319 19.9837 5.54319 17.5385C5.54319 15.0932 6.29026 12.7073 7.68575 10.6983C9.08126 8.68923 11.0577 7.15453 13.3508 6.29837C15.644 5.44221 18.1431 5.30586 20.5158 5.90805C22.8886 6.51024 25.02 7.82138 26.6258 9.66706C26.8646 9.9416 27.1553 10.1665 27.4811 10.3288C27.8069 10.4912 28.1615 10.5878 28.5247 10.6133C28.888 10.6387 29.2526 10.5925 29.598 10.4771C29.9433 10.3618 30.2625 10.1797 30.5373 9.9411C30.8122 9.70258 31.0373 9.41231 31.1998 9.08688C31.3624 8.76145 31.4592 8.40722 31.4846 8.04443C31.5101 7.68165 31.4638 7.3174 31.3483 6.97249C31.2329 6.62758 31.0505 6.30877 30.8117 6.03425C28.4652 3.3372 25.3484 1.4199 21.8813 0.53996C20.1478 0.0999889 18.3675 -0.0699763 16.6017 0.0261382Z" />
</svg>
