<svg xmlns="http://www.w3.org/2000/svg" version="1.1" xlink="http://www.w3.org/1999/xlink" xmlns:svgjs="http://svgjs.com/svgjs" width="100%" height="100%" viewBox="1.8899999856948853 -51.13999938964844 433.55999755859375 69.92000579833984"><g fill="#f4f2f2"><path d="M44.89 -21.06C44.89 -23.19 44.6 -25.09 44.02 -26.75C43.44 -28.42 42.63 -29.89 41.62 -31.17C40.6 -32.45 39.41 -33.55 38.05 -34.48C36.68 -35.4 35.24 -36.18 33.7 -36.82C32.16 -37.46 30.57 -37.98 28.92 -38.38C27.27 -38.78 25.65 -39.08 24.06 -39.3C22.47 -39.51 20.94 -39.65 19.49 -39.73C18.03 -39.8 16.73 -39.84 15.59 -39.84L1.89 -39.84L1.89 -38.81C2.89 -38.81 3.7 -38.69 4.33 -38.45C4.96 -38.21 5.46 -37.91 5.82 -37.55C6.18 -37.18 6.43 -36.79 6.57 -36.37C6.71 -35.94 6.78 -35.54 6.78 -35.17L6.78 18.78C7.26 17.82 7.81 16.9 8.42 16.04C9.03 15.18 9.66 14.36 10.32 13.58C10.98 12.81 11.62 12.07 12.25 11.38C12.88 10.68 13.44 10.03 13.93 9.43C14.42 8.83 14.82 8.27 15.13 7.75C15.43 7.23 15.59 6.75 15.59 6.31L15.59 0.44C16.47 0.7 17.38 0.88 18.31 0.99C19.23 1.09 20.17 1.14 21.11 1.14C24.85 1.14 28.2 0.54 31.14 -0.65C34.09 -1.85 36.58 -3.46 38.62 -5.5C40.65 -7.54 42.21 -9.89 43.28 -12.57C44.36 -15.25 44.89 -18.08 44.89 -21.06ZM35.78 -18.95C35.78 -17.71 35.69 -16.4 35.52 -15.03C35.34 -13.66 35.06 -12.3 34.66 -10.95C34.26 -9.59 33.73 -8.3 33.06 -7.07C32.39 -5.84 31.57 -4.76 30.59 -3.82C29.61 -2.88 28.44 -2.14 27.1 -1.58C25.76 -1.03 24.22 -0.75 22.47 -0.75C21.36 -0.75 20.2 -0.84 18.97 -1.03C17.75 -1.21 16.62 -1.59 15.59 -2.17L15.59 -37.78C16.83 -37.69 18.19 -37.51 19.68 -37.24C21.17 -36.97 22.66 -36.56 24.16 -35.99C25.65 -35.43 27.09 -34.69 28.49 -33.78C29.89 -32.87 31.13 -31.74 32.21 -30.36C33.3 -28.99 34.16 -27.37 34.81 -25.5C35.46 -23.63 35.78 -21.45 35.78 -18.95Z M100.28 -1.47L99.87 -2.72C99.33 -2.5 98.83 -2.36 98.38 -2.31C97.93 -2.25 97.57 -2.22 97.31 -2.22C96.59 -2.2 95.94 -2.33 95.37 -2.61C94.79 -2.89 94.27 -3.26 93.8 -3.72C93.32 -4.19 92.9 -4.71 92.52 -5.31C92.14 -5.9 91.78 -6.5 91.45 -7.11C89.6 -10.52 87.87 -13.98 86.25 -17.49C84.64 -21 83.02 -24.5 81.39 -28C81.15 -28.52 80.87 -29.14 80.55 -29.85C80.22 -30.56 79.86 -31.32 79.46 -32.11C79.06 -32.91 78.64 -33.71 78.18 -34.5C77.73 -35.3 77.24 -36.05 76.73 -36.74C76.21 -37.43 75.66 -38.04 75.09 -38.55C74.51 -39.06 73.92 -39.42 73.31 -39.64C72.6 -39.9 71.87 -40.08 71.11 -40.19C70.35 -40.29 69.59 -40.34 68.81 -40.34C67.18 -40.34 65.53 -40.15 63.88 -39.77C62.22 -39.39 60.58 -38.93 58.97 -38.39L59.36 -37.25C60.01 -37.5 60.69 -37.7 61.4 -37.87C62.12 -38.03 62.84 -38.12 63.59 -38.12C64.64 -38.12 65.53 -37.86 66.24 -37.34C66.95 -36.82 67.57 -36.18 68.1 -35.41C68.63 -34.64 69.09 -33.8 69.47 -32.91C69.86 -32.01 70.25 -31.19 70.64 -30.45C70.92 -29.82 71.21 -29.19 71.52 -28.57C71.82 -27.95 72.13 -27.35 72.45 -26.75C71.3 -26.12 70.28 -25.35 69.38 -24.43C68.48 -23.52 67.68 -22.53 66.99 -21.49C66.29 -20.44 65.7 -19.36 65.21 -18.25C64.72 -17.14 64.33 -16.09 64.03 -15.09C63.51 -13.34 62.92 -11.69 62.25 -10.13C61.58 -8.56 60.78 -7.15 59.83 -5.9C58.89 -4.65 57.76 -3.6 56.46 -2.75C55.15 -1.9 53.6 -1.32 51.81 -1.03L52.08 0.17C53.64 0.17 55.07 0.06 56.36 -0.17C57.66 -0.39 58.83 -0.71 59.89 -1.13C60.95 -1.54 61.9 -2.05 62.75 -2.64C63.6 -3.23 64.37 -3.91 65.06 -4.67C65.41 -4.93 66.02 -5.34 66.88 -5.9C67.74 -6.47 68.8 -7.09 70.06 -7.76C71.32 -8.44 72.76 -9.13 74.38 -9.82C76 -10.52 77.74 -11.13 79.61 -11.67L80.31 -10.2C80.68 -9.4 81.06 -8.55 81.45 -7.64C81.84 -6.73 82.28 -5.85 82.77 -5C83.26 -4.15 83.81 -3.35 84.42 -2.61C85.03 -1.87 85.74 -1.27 86.56 -0.81C86.95 -0.6 87.41 -0.42 87.95 -0.25C88.41 -0.1 88.97 0.02 89.62 0.13C90.26 0.23 91.03 0.28 91.92 0.28C93.03 0.28 94.28 0.16 95.67 -0.08C97.06 -0.32 98.6 -0.79 100.28 -1.47ZM74 -23.56L78.73 -13.58C76.6 -12.96 74.6 -12.2 72.72 -11.31C70.85 -10.42 69.22 -9.57 67.84 -8.75C68.24 -9.51 68.61 -10.29 68.93 -11.1C69.26 -11.9 69.56 -12.73 69.84 -13.58C70.11 -14.36 70.39 -15.18 70.67 -16.03C70.95 -16.88 71.25 -17.74 71.59 -18.6C71.92 -19.46 72.29 -20.31 72.68 -21.14C73.08 -21.97 73.52 -22.78 74 -23.56Z M147.73 -21.06C147.73 -23.19 147.44 -25.09 146.85 -26.75C146.27 -28.42 145.47 -29.89 144.45 -31.17C143.43 -32.45 142.24 -33.55 140.88 -34.48C139.52 -35.4 138.07 -36.18 136.53 -36.82C135 -37.46 133.4 -37.98 131.75 -38.38C130.11 -38.78 128.49 -39.08 126.89 -39.3C125.3 -39.51 123.78 -39.65 122.32 -39.73C120.87 -39.8 119.57 -39.84 118.42 -39.84L104.72 -39.84L104.72 -38.81C105.72 -38.81 106.54 -38.69 107.17 -38.45C107.8 -38.21 108.29 -37.91 108.65 -37.55C109.02 -37.18 109.27 -36.79 109.4 -36.37C109.54 -35.94 109.61 -35.54 109.61 -35.17L109.61 18.78C110.09 17.82 110.64 16.9 111.25 16.04C111.86 15.18 112.5 14.36 113.15 13.58C113.81 12.81 114.46 12.07 115.09 11.38C115.72 10.68 116.28 10.03 116.77 9.43C117.26 8.83 117.66 8.27 117.96 7.75C118.27 7.23 118.42 6.75 118.42 6.31L118.42 0.44C119.31 0.7 120.22 0.88 121.14 0.99C122.07 1.09 123 1.14 123.95 1.14C127.69 1.14 131.03 0.54 133.98 -0.65C136.92 -1.85 139.41 -3.46 141.45 -5.5C143.49 -7.54 145.04 -9.89 146.12 -12.57C147.19 -15.25 147.73 -18.08 147.73 -21.06ZM138.62 -18.95C138.62 -17.71 138.53 -16.4 138.35 -15.03C138.18 -13.66 137.89 -12.3 137.49 -10.95C137.09 -9.59 136.56 -8.3 135.89 -7.07C135.23 -5.84 134.4 -4.76 133.42 -3.82C132.44 -2.88 131.28 -2.14 129.93 -1.58C128.59 -1.03 127.05 -0.75 125.31 -0.75C124.2 -0.75 123.03 -0.84 121.81 -1.03C120.59 -1.21 119.46 -1.59 118.42 -2.17L118.42 -37.78C119.66 -37.69 121.03 -37.51 122.52 -37.24C124.01 -36.97 125.5 -36.56 126.99 -35.99C128.48 -35.43 129.93 -34.69 131.32 -33.78C132.72 -32.87 133.96 -31.74 135.05 -30.36C136.13 -28.99 137 -27.37 137.64 -25.5C138.29 -23.63 138.62 -21.45 138.62 -18.95Z M194.31 -30.95L195.56 -31C195.34 -31.82 195.16 -32.58 195.03 -33.3C194.9 -34.01 194.84 -34.78 194.84 -35.62C194.84 -36.21 194.88 -36.84 194.96 -37.52C195.05 -38.19 195.19 -38.97 195.39 -39.84C194.39 -39.84 193.16 -39.86 191.69 -39.89C190.21 -39.93 188.64 -39.95 186.98 -39.95C185.25 -39.95 183.54 -39.9 181.84 -39.81C180.13 -39.72 178.62 -39.51 177.31 -39.2C174.81 -38.62 172.46 -37.75 170.25 -36.57C168.05 -35.4 166.12 -33.92 164.46 -32.13C162.8 -30.34 161.48 -28.25 160.49 -25.85C159.5 -23.45 158.97 -20.75 158.92 -17.75C158.96 -14.84 159.59 -12.21 160.82 -9.85C162.05 -7.49 163.71 -5.47 165.79 -3.81C167.88 -2.14 170.29 -0.85 173.04 0.06C175.8 0.96 178.72 1.42 181.81 1.42C183.42 1.42 184.92 1.29 186.31 1.03C187.7 0.77 188.95 0.42 190.07 -0.01C191.19 -0.45 192.16 -0.94 192.98 -1.49C193.79 -2.03 194.41 -2.6 194.84 -3.19L195.28 -7.11C195.19 -7 195.06 -6.77 194.88 -6.43C194.7 -6.09 194.44 -5.7 194.09 -5.25C193.74 -4.81 193.29 -4.34 192.76 -3.85C192.22 -3.36 191.56 -2.91 190.77 -2.5C189.98 -2.09 189.05 -1.75 187.98 -1.49C186.9 -1.22 185.66 -1.08 184.25 -1.08C182.7 -1.08 181.23 -1.31 179.84 -1.75C178.45 -2.19 177.17 -2.82 176 -3.63C174.84 -4.43 173.78 -5.38 172.84 -6.47C171.89 -7.57 171.1 -8.76 170.45 -10.07C169.8 -11.38 169.3 -12.75 168.95 -14.2C168.6 -15.64 168.42 -17.11 168.42 -18.61L168.42 -19.81L179.92 -19.81C181.81 -19.81 183.34 -19.72 184.52 -19.54C185.69 -19.37 186.63 -19.06 187.34 -18.61C188.04 -18.17 188.57 -17.56 188.92 -16.78C189.27 -16 189.57 -15.02 189.81 -13.83L190.73 -14C190.75 -14.82 190.81 -15.66 190.92 -16.53C191.01 -17.27 191.16 -18.07 191.37 -18.93C191.57 -19.79 191.87 -20.61 192.26 -21.39L168.59 -21.39C168.75 -22.76 169.03 -24.13 169.42 -25.5C169.81 -26.87 170.3 -28.18 170.91 -29.43C171.51 -30.68 172.21 -31.85 173 -32.93C173.8 -34.02 174.68 -34.95 175.66 -35.74C176.63 -36.53 177.68 -37.15 178.81 -37.6C179.94 -38.06 181.14 -38.28 182.42 -38.28C183.59 -38.28 184.76 -38.12 185.95 -37.8C187.13 -37.47 188.26 -36.99 189.32 -36.37C190.39 -35.74 191.35 -34.97 192.21 -34.06C193.07 -33.15 193.77 -32.11 194.31 -30.95Z M247.34 -0.33L246.92 -1.58C246.39 -1.36 245.89 -1.22 245.44 -1.17C244.98 -1.11 244.63 -1.08 244.37 -1.08C243.83 -1.08 243.21 -1.27 242.52 -1.65C241.82 -2.03 241.08 -2.56 240.28 -3.24C239.49 -3.91 238.67 -4.7 237.82 -5.61C236.98 -6.52 236.14 -7.5 235.31 -8.56C234.48 -9.61 233.68 -10.71 232.92 -11.86C232.16 -13.01 231.47 -14.16 230.84 -15.31C232.47 -15.68 234.06 -16.18 235.63 -16.82C237.19 -17.46 238.59 -18.27 239.82 -19.25C241.06 -20.23 242.05 -21.41 242.8 -22.78C243.55 -24.15 243.92 -25.75 243.92 -27.59C243.92 -29.75 243.41 -31.61 242.38 -33.16C241.35 -34.7 239.96 -35.97 238.21 -36.96C236.46 -37.95 234.42 -38.68 232.09 -39.14C229.75 -39.61 227.27 -39.84 224.64 -39.84L206.03 -39.84L206.03 -38.81C207.03 -38.81 207.84 -38.69 208.47 -38.45C209.1 -38.21 209.6 -37.91 209.96 -37.55C210.32 -37.18 210.57 -36.79 210.71 -36.37C210.85 -35.94 210.92 -35.54 210.92 -35.17L210.92 -4.72C210.92 -4.22 210.85 -3.75 210.71 -3.31C210.57 -2.86 210.32 -2.47 209.95 -2.13C209.58 -1.78 209.08 -1.51 208.45 -1.32C207.82 -1.13 207.01 -1.03 206.03 -1.03L206.03 0L224.64 0L224.64 -1.03C223.59 -1.03 222.73 -1.16 222.09 -1.43C221.44 -1.7 220.94 -2.03 220.6 -2.42C220.26 -2.81 220.03 -3.22 219.91 -3.67C219.79 -4.11 219.73 -4.52 219.73 -4.89L219.73 -34.48C219.73 -34.98 219.79 -35.45 219.93 -35.91C220.07 -36.36 220.33 -36.76 220.7 -37.1C221.07 -37.44 221.57 -37.72 222.21 -37.92C222.85 -38.12 223.66 -38.23 224.64 -38.23C225.29 -38.23 225.99 -38.14 226.74 -37.96C227.49 -37.79 228.24 -37.51 228.98 -37.14C229.72 -36.77 230.43 -36.31 231.12 -35.74C231.8 -35.18 232.4 -34.5 232.92 -33.71C233.44 -32.93 233.86 -32.03 234.17 -31.02C234.49 -30.01 234.64 -28.88 234.64 -27.64C234.64 -26.27 234.46 -25.05 234.1 -23.97C233.74 -22.9 233.26 -21.95 232.67 -21.11C232.08 -20.28 231.4 -19.56 230.64 -18.95C229.88 -18.34 229.11 -17.81 228.31 -17.36C226.46 -16.34 224.36 -15.64 222 -15.25C222.24 -14.75 222.66 -13.99 223.24 -12.97C223.82 -11.96 224.54 -10.83 225.38 -9.58C226.22 -8.34 227.17 -7.07 228.23 -5.78C229.28 -4.48 230.41 -3.3 231.6 -2.24C232.8 -1.17 234.04 -0.3 235.32 0.39C236.61 1.07 237.9 1.42 239.2 1.42C240.24 1.42 241.43 1.3 242.78 1.06C244.14 0.81 245.65 0.35 247.34 -0.33Z M290.78 -30.84C290.78 -32.74 290.38 -34.29 289.56 -35.46C288.75 -36.64 287.58 -37.55 286.07 -38.2C284.56 -38.85 282.75 -39.28 280.62 -39.5C278.49 -39.73 276.11 -39.84 273.48 -39.84L254.89 -39.84L254.89 -38.81C255.95 -38.81 256.8 -38.68 257.45 -38.41C258.09 -38.14 258.6 -37.81 258.96 -37.42C259.32 -37.03 259.57 -36.61 259.7 -36.14C259.83 -35.68 259.89 -35.25 259.89 -34.87L259.61 -0.5C261.24 -0.19 262.91 0.09 264.61 0.33C265.34 0.44 266.1 0.55 266.91 0.64C267.71 0.73 268.53 0.81 269.36 0.89C270.2 0.96 271.03 1.02 271.86 1.07C272.7 1.12 273.5 1.14 274.28 1.14C275.06 1.14 275.95 1.11 276.96 1.06C277.97 1 279.03 0.9 280.14 0.75C281.25 0.6 282.39 0.39 283.56 0.13C284.73 -0.14 285.86 -0.5 286.95 -0.94C288.04 -1.39 289.07 -1.93 290.03 -2.57C291 -3.21 291.84 -3.97 292.58 -4.86C293.31 -5.75 293.88 -6.77 294.3 -7.92C294.71 -9.07 294.92 -10.37 294.92 -11.83C294.92 -13.71 294.55 -15.24 293.81 -16.45C293.07 -17.65 292.1 -18.6 290.89 -19.29C289.69 -19.99 288.33 -20.47 286.82 -20.72C285.32 -20.98 283.79 -21.11 282.25 -21.11L281.63 -21.11C281.42 -21.11 281.21 -21.1 281 -21.06C282.32 -21.56 283.57 -22.16 284.75 -22.85C285.94 -23.54 286.98 -24.31 287.87 -25.16C288.76 -26 289.46 -26.9 289.99 -27.86C290.52 -28.83 290.78 -29.82 290.78 -30.84ZM281.5 -30.89C281.5 -29.58 281.35 -28.41 281.03 -27.38C280.72 -26.35 280.3 -25.45 279.78 -24.67C279.26 -23.89 278.68 -23.22 278.03 -22.67C277.38 -22.11 276.72 -21.65 276.03 -21.28C274.44 -20.39 272.62 -19.83 270.59 -19.59L271.03 -18.5C271.4 -18.56 271.82 -18.62 272.28 -18.7C272.67 -18.73 273.12 -18.78 273.64 -18.82C274.16 -18.87 274.72 -18.89 275.31 -18.89C276.07 -18.89 276.87 -18.84 277.71 -18.75C278.55 -18.66 279.39 -18.49 280.21 -18.24C281.04 -17.99 281.82 -17.64 282.56 -17.2C283.3 -16.75 283.96 -16.18 284.53 -15.49C285.11 -14.79 285.56 -13.96 285.89 -12.99C286.23 -12.02 286.39 -10.87 286.39 -9.56C286.39 -7.98 286.06 -6.62 285.38 -5.46C284.7 -4.3 283.86 -3.35 282.84 -2.6C281.82 -1.85 280.72 -1.29 279.53 -0.93C278.35 -0.57 277.24 -0.39 276.23 -0.39C275.06 -0.39 274 -0.48 273.06 -0.65C272.11 -0.83 271.3 -1.03 270.61 -1.25C269.82 -1.49 269.1 -1.78 268.48 -2.11L268.59 -34.37C268.59 -34.88 268.65 -35.37 268.78 -35.84C268.91 -36.3 269.16 -36.71 269.52 -37.06C269.88 -37.41 270.38 -37.69 271.02 -37.91C271.66 -38.12 272.48 -38.23 273.48 -38.23C274.46 -38.23 275.43 -38.12 276.39 -37.89C277.36 -37.67 278.22 -37.28 278.98 -36.73C279.74 -36.17 280.35 -35.42 280.81 -34.48C281.27 -33.53 281.5 -32.34 281.5 -30.89Z M332.98 -39.84L332.98 -38.81C334.03 -38.81 334.88 -38.68 335.53 -38.41C336.18 -38.14 336.68 -37.81 337.02 -37.42C337.36 -37.03 337.59 -36.61 337.71 -36.16C337.83 -35.7 337.89 -35.29 337.89 -34.92L337.89 -12.58C337.89 -10.86 337.6 -9.28 337.01 -7.85C336.41 -6.41 335.61 -5.18 334.6 -4.14C333.59 -3.1 332.42 -2.3 331.09 -1.72C329.75 -1.15 328.34 -0.86 326.84 -0.86C325.17 -0.86 323.63 -1.19 322.21 -1.86C320.79 -2.53 319.57 -3.53 318.53 -4.88C317.49 -6.22 316.68 -7.89 316.1 -9.9C315.52 -11.91 315.22 -14.26 315.22 -16.95C315.22 -19.78 315.44 -22.34 315.86 -24.61C316.29 -26.89 316.83 -28.91 317.48 -30.67C318.12 -32.43 318.83 -33.94 319.59 -35.21C320.35 -36.48 321.06 -37.53 321.73 -38.37C322.39 -39.2 322.96 -39.83 323.42 -40.25C323.88 -40.68 324.15 -40.92 324.23 -40.98L323.48 -41.64C320.12 -40.31 317.12 -38.53 314.47 -36.31C313.35 -35.37 312.24 -34.28 311.17 -33.05C310.09 -31.81 309.14 -30.42 308.29 -28.88C307.45 -27.33 306.77 -25.62 306.27 -23.74C305.76 -21.86 305.5 -19.81 305.5 -17.59C305.5 -15.53 305.78 -13.64 306.33 -11.9C306.89 -10.17 307.65 -8.62 308.63 -7.24C309.6 -5.86 310.74 -4.64 312.06 -3.6C313.37 -2.55 314.79 -1.68 316.32 -0.97C317.85 -0.27 319.45 0.26 321.11 0.61C322.78 0.96 324.45 1.14 326.12 1.14C327.47 1.14 328.72 1 329.87 0.71C331.01 0.42 332.07 0.04 333.05 -0.44C334.02 -0.93 334.9 -1.49 335.7 -2.13C336.5 -2.76 337.23 -3.44 337.89 -4.17L337.89 0L351.59 0L351.59 -1.03C350.53 -1.03 349.69 -1.16 349.05 -1.43C348.41 -1.7 347.92 -2.03 347.58 -2.42C347.23 -2.81 347 -3.22 346.88 -3.67C346.76 -4.11 346.7 -4.52 346.7 -4.89L346.7 -34.92C346.7 -35.44 346.77 -35.93 346.9 -36.39C347.02 -36.86 347.27 -37.27 347.63 -37.63C347.99 -37.99 348.49 -38.28 349.13 -38.49C349.77 -38.7 350.59 -38.81 351.59 -38.81L351.59 -39.84Z M361.39 -51.14L361.39 -50.12C362.39 -50.12 363.21 -50 363.84 -49.76C364.47 -49.51 364.96 -49.21 365.32 -48.85C365.68 -48.49 365.93 -48.1 366.07 -47.67C366.21 -47.25 366.28 -46.85 366.28 -46.48L366.28 -4.72C366.28 -4.22 366.21 -3.75 366.07 -3.31C365.93 -2.86 365.68 -2.47 365.31 -2.13C364.94 -1.78 364.44 -1.51 363.81 -1.32C363.18 -1.13 362.37 -1.03 361.39 -1.03L361.39 0L373.84 0C376.41 0 378.73 -0.01 380.78 -0.04C382.84 -0.07 384.58 0.02 386.01 0.24C387.43 0.45 388.53 0.85 389.3 1.44C390.07 2.04 390.45 2.94 390.45 4.17C390.45 4.44 390.44 4.75 390.41 5.08C390.38 5.42 390.32 5.75 390.23 6.08L391.53 5.81C391.74 4.81 392.01 3.82 392.34 2.83C392.64 2 393.02 1.13 393.51 0.22C393.99 -0.69 394.58 -1.48 395.28 -2.17L375.09 -2.17L375.09 -51.14Z M401.56 -51.14L401.56 -50.12C402.56 -50.12 403.37 -50 404 -49.76C404.63 -49.51 405.13 -49.21 405.49 -48.85C405.85 -48.49 406.1 -48.1 406.24 -47.67C406.38 -47.25 406.45 -46.85 406.45 -46.48L406.45 -4.72C406.45 -4.22 406.38 -3.75 406.24 -3.31C406.1 -2.86 405.84 -2.47 405.47 -2.13C405.1 -1.78 404.6 -1.51 403.97 -1.32C403.34 -1.13 402.54 -1.03 401.56 -1.03L401.56 0L414 0C416.58 0 418.89 -0.01 420.95 -0.04C423 -0.07 424.74 0.02 426.17 0.24C427.6 0.45 428.69 0.85 429.46 1.44C430.23 2.04 430.62 2.94 430.62 4.17C430.62 4.44 430.6 4.75 430.57 5.08C430.55 5.42 430.49 5.75 430.39 6.08L431.7 5.81C431.9 4.81 432.17 3.82 432.5 2.83C432.8 2 433.19 1.13 433.67 0.22C434.15 -0.69 434.75 -1.48 435.45 -2.17L415.25 -2.17L415.25 -51.14Z"></path></g></svg>